# xmcd
#
# Track frame offsets:
#	151
#	13178
#	24441
#	36896
#	49709
#	62130
#	74597
#	83638
#	90863
#	101786
#	113713
#	120810
#	132921
#	149036
#	156917
#
# Disc length: 2254 seconds
#
# Revision: 1
# Processed by: cddbd v1.4PL0 Copyright (c) Steve Scherf et al.
# Submitted via: EasyCDDAExtractor 5.0.7
#
DISCID=c608cc0f
DTITLE=The Oakridge Boys - On The Sunny Banks
DYEAR=1900
DGENRE=Country
TTITLE0=In The Shelter Of His Arms
TTITLE1=I'll Wake Up On The Other Side
TTITLE2=On The Sunny Banks
TTITLE3=You'll Never Walk Alone
TTITLE4=Time Has Made A Change In Me
TTITLE5=When I Lay My Burdens Down
TTITLE6=He Means All The World To Me
TTITLE7=I Know
TTITLE8=It's Different Now
TTITLE9=No One Cared So Much
TTITLE10=Each Step I Take
TTITLE11=Little As Much
TTITLE12=Farther Along
TTITLE13=I Don't Mind My Journey
TTITLE14=At The Roll Call
EXTD=
EXTT0=
EXTT1=
EXTT2=
EXTT3=
EXTT4=
EXTT5=
EXTT6=
EXTT7=
EXTT8=
EXTT9=
EXTT10=
EXTT11=
EXTT12=
EXTT13=
EXTT14=
PLAYORDER=
